<svg width="86" height="38" viewBox="0 0 86 38" fill="none" xmlns="http://www.w3.org/2000/svg">
<path d="M1.07457 34V21.6364H9.26065V23.7915H3.68857V26.7376H8.71733V28.8928H3.68857V34H1.07457ZM14.5158 34.1811C13.562 34.1811 12.7409 33.9879 12.0527 33.6016C11.3685 33.2112 10.8413 32.6598 10.4711 31.9474C10.1008 31.2311 9.91566 30.3839 9.91566 29.4059C9.91566 28.4521 10.1008 27.6149 10.4711 26.8945C10.8413 26.1741 11.3625 25.6127 12.0346 25.2102C12.7108 24.8078 13.5036 24.6065 14.4132 24.6065C15.0249 24.6065 15.5944 24.7051 16.1216 24.9023C16.6529 25.0955 17.1157 25.3873 17.5101 25.7777C17.9086 26.1681 18.2185 26.6591 18.4398 27.2507C18.6612 27.8383 18.7718 28.5265 18.7718 29.3153V30.0217H10.9419V28.4279H16.351C16.351 28.0576 16.2705 27.7296 16.1096 27.4439C15.9486 27.1581 15.7252 26.9348 15.4395 26.7738C15.1577 26.6088 14.8297 26.5263 14.4554 26.5263C14.065 26.5263 13.7189 26.6168 13.4171 26.7979C13.1193 26.975 12.8858 27.2145 12.7168 27.5163C12.5478 27.8142 12.4612 28.1462 12.4572 28.5124V30.0277C12.4572 30.4865 12.5417 30.8829 12.7108 31.217C12.8838 31.551 13.1273 31.8086 13.4412 31.9897C13.7551 32.1708 14.1274 32.2614 14.5581 32.2614C14.8438 32.2614 15.1054 32.2211 15.3429 32.1406C15.5803 32.0601 15.7836 31.9394 15.9526 31.7784C16.1216 31.6174 16.2504 31.4202 16.339 31.1868L18.7175 31.3438C18.5968 31.9152 18.3493 32.4143 17.975 32.8409C17.6047 33.2635 17.1258 33.5935 16.5382 33.831C15.9546 34.0644 15.2805 34.1811 14.5158 34.1811ZM20.4501 34V24.7273H22.9434V26.3452H23.04C23.209 25.7696 23.4927 25.335 23.8912 25.0412C24.2896 24.7434 24.7484 24.5945 25.2676 24.5945C25.3964 24.5945 25.5352 24.6025 25.6841 24.6186C25.833 24.6347 25.9638 24.6568 26.0765 24.685V26.967C25.9558 26.9308 25.7888 26.8986 25.5755 26.8704C25.3622 26.8422 25.167 26.8281 24.9899 26.8281C24.6116 26.8281 24.2735 26.9106 23.9757 27.0756C23.6819 27.2366 23.4484 27.462 23.2754 27.7518C23.1064 28.0415 23.0218 28.3756 23.0218 28.7539V34H20.4501ZM27.4062 34V24.7273H29.8994V26.3452H29.996C30.165 25.7696 30.4488 25.335 30.8472 25.0412C31.2456 24.7434 31.7045 24.5945 32.2236 24.5945C32.3524 24.5945 32.4913 24.6025 32.6402 24.6186C32.7891 24.6347 32.9199 24.6568 33.0326 24.685V26.967C32.9118 26.9308 32.7448 26.8986 32.5315 26.8704C32.3182 26.8422 32.123 26.8281 31.9459 26.8281C31.5676 26.8281 31.2296 26.9106 30.9317 27.0756C30.6379 27.2366 30.4045 27.462 30.2314 27.7518C30.0624 28.0415 29.9779 28.3756 29.9779 28.7539V34H27.4062ZM38.1564 34.1811C37.2026 34.1811 36.3816 33.9879 35.6934 33.6016C35.0092 33.2112 34.4819 32.6598 34.1117 31.9474C33.7414 31.2311 33.5563 30.3839 33.5563 29.4059C33.5563 28.4521 33.7414 27.6149 34.1117 26.8945C34.4819 26.1741 35.0031 25.6127 35.6752 25.2102C36.3514 24.8078 37.1442 24.6065 38.0538 24.6065C38.6655 24.6065 39.235 24.7051 39.7623 24.9023C40.2935 25.0955 40.7563 25.3873 41.1507 25.7777C41.5492 26.1681 41.8591 26.6591 42.0804 27.2507C42.3018 27.8383 42.4125 28.5265 42.4125 29.3153V30.0217H34.5826V28.4279H39.9917C39.9917 28.0576 39.9112 27.7296 39.7502 27.4439C39.5892 27.1581 39.3658 26.9348 39.0801 26.7738C38.7984 26.6088 38.4703 26.5263 38.0961 26.5263C37.7057 26.5263 37.3596 26.6168 37.0577 26.7979C36.7599 26.975 36.5265 27.2145 36.3574 27.5163C36.1884 27.8142 36.1019 28.1462 36.0978 28.5124V30.0277C36.0978 30.4865 36.1824 30.8829 36.3514 31.217C36.5244 31.551 36.7679 31.8086 37.0819 31.9897C37.3958 32.1708 37.7681 32.2614 38.1987 32.2614C38.4844 32.2614 38.746 32.2211 38.9835 32.1406C39.2209 32.0601 39.4242 31.9394 39.5932 31.7784C39.7623 31.6174 39.891 31.4202 39.9796 31.1868L42.3581 31.3438C42.2374 31.9152 41.9899 32.4143 41.6156 32.8409C41.2453 33.2635 40.7664 33.5935 40.1788 33.831C39.5952 34.0644 38.9211 34.1811 38.1564 34.1811ZM44.139 21.6364H47.3627L50.7676 29.9432H50.9125L54.3173 21.6364H57.541V34H55.0055V25.9528H54.9029L51.7033 33.9396H49.9767L46.7772 25.9226H46.6745V34H44.139V21.6364ZM62.2906 34.1751C61.699 34.1751 61.1717 34.0724 60.7089 33.8672C60.2461 33.6579 59.8798 33.35 59.6102 32.9435C59.3445 32.533 59.2117 32.0219 59.2117 31.4102C59.2117 30.895 59.3063 30.4624 59.4955 30.1122C59.6846 29.7621 59.9422 29.4804 60.2682 29.267C60.5942 29.0537 60.9645 28.8928 61.379 28.7841C61.7976 28.6754 62.2362 28.599 62.695 28.5547C63.2343 28.4983 63.669 28.446 63.999 28.3977C64.329 28.3454 64.5685 28.2689 64.7174 28.1683C64.8663 28.0677 64.9408 27.9188 64.9408 27.7216V27.6854C64.9408 27.303 64.82 27.0072 64.5786 26.7979C64.3411 26.5887 64.003 26.484 63.5644 26.484C63.1015 26.484 62.7333 26.5866 62.4596 26.7919C62.1859 26.9931 62.0048 27.2467 61.9163 27.5526L59.5377 27.3594C59.6585 26.7959 59.8959 26.3089 60.2501 25.8984C60.6043 25.4839 61.0611 25.166 61.6205 24.9446C62.1839 24.7192 62.8359 24.6065 63.5764 24.6065C64.0916 24.6065 64.5846 24.6669 65.0555 24.7876C65.5304 24.9084 65.951 25.0955 66.3172 25.3491C66.6875 25.6026 66.9793 25.9286 67.1926 26.3271C67.4059 26.7215 67.5125 27.1944 67.5125 27.7457V34H65.0736V32.7141H65.0012C64.8522 33.0039 64.653 33.2595 64.4035 33.4808C64.154 33.6982 63.8541 33.8692 63.504 33.994C63.1539 34.1147 62.7494 34.1751 62.2906 34.1751ZM63.0271 32.4002C63.4054 32.4002 63.7394 32.3258 64.0292 32.1768C64.319 32.0239 64.5464 31.8187 64.7114 31.5611C64.8764 31.3035 64.9589 31.0117 64.9589 30.6857V29.7017C64.8784 29.754 64.7677 29.8023 64.6269 29.8466C64.49 29.8868 64.3351 29.9251 64.162 29.9613C63.989 29.9935 63.8159 30.0237 63.6428 30.0518C63.4698 30.076 63.3128 30.0981 63.172 30.1183C62.8701 30.1625 62.6065 30.233 62.3811 30.3295C62.1557 30.4261 61.9807 30.5569 61.8559 30.7219C61.7311 30.8829 61.6688 31.0842 61.6688 31.3256C61.6688 31.6758 61.7955 31.9434 62.0491 32.1286C62.3067 32.3097 62.6327 32.4002 63.0271 32.4002ZM69.5077 34V24.7273H72.001V26.3452H72.0976C72.2666 25.7696 72.5503 25.335 72.9488 25.0412C73.3472 24.7434 73.806 24.5945 74.3252 24.5945C74.454 24.5945 74.5928 24.6025 74.7417 24.6186C74.8907 24.6347 75.0215 24.6568 75.1341 24.685V26.967C75.0134 26.9308 74.8464 26.8986 74.6331 26.8704C74.4198 26.8422 74.2246 26.8281 74.0475 26.8281C73.6692 26.8281 73.3311 26.9106 73.0333 27.0756C72.7395 27.2366 72.5061 27.462 72.333 27.7518C72.164 28.0415 72.0795 28.3756 72.0795 28.7539V34H69.5077ZM81.8608 24.7273V26.6591H76.2766V24.7273H81.8608ZM77.5444 22.5057H80.1161V31.1506C80.1161 31.388 80.1523 31.5732 80.2248 31.706C80.2972 31.8348 80.3978 31.9253 80.5266 31.9776C80.6594 32.0299 80.8124 32.0561 80.9854 32.0561C81.1062 32.0561 81.2269 32.046 81.3477 32.0259C81.4684 32.0018 81.561 31.9837 81.6254 31.9716L82.0298 33.8853C81.901 33.9255 81.7199 33.9718 81.4865 34.0241C81.2531 34.0805 80.9693 34.1147 80.6353 34.1268C80.0155 34.1509 79.4722 34.0684 79.0053 33.8793C78.5425 33.6901 78.1823 33.3963 77.9247 32.9979C77.6671 32.5994 77.5404 32.0964 77.5444 31.4886V22.5057Z" fill="black"/>
<path d="M41 0L71.3109 16.5H10.6891L41 0Z" fill="#3F8E47"/>
</svg>
